# xmcd
#
# Track frame offsets:
# 150
# 14097
# 27515
# 40402
# 56582
# 74692
# 88797
# 104930
# 122472
# 136190
# 148950
# 162897
#
# Disc length: 2335 seconds
#
#
# Revision: 0
# Processed by: cddbd v1.5.1PL0 Copyright (c) Steve Scherf et al.
# Submitted via: FreeRIP 2.52 
#
DISCID=b9091d0c
DTITLE=Country Roads - Frei wie der Wind
DYEAR=1900
DGENRE=Country
TTITLE0=Sweet Sweet Country Lady Jane
TTITLE1=Trucker sind Freunde
TTITLE2=Dagegen hilft nur Country Music
TTITLE3=Du bist der Felsen
TTITLE4=M‰dchen an der Theke
TTITLE5=Drei Millionen Meilen
TTITLE6=Groﬂstadt-Cowboy
TTITLE7=Nashville-Country-Boy
TTITLE8=Es gibt Tage
TTITLE9=Komm fahr mit mir
TTITLE10=Mein bester Kumpel
TTITLE11=Das Brautkleid
EXTD=
EXTT0=
EXTT1=
EXTT2=
EXTT3=
EXTT4=
EXTT5=
EXTT6=
EXTT7=
EXTT8=
EXTT9=
EXTT10=
EXTT11=
PLAYORDER=
